<svg width="370" height="238" viewBox="0 0 370 238" fill="none" xmlns="http://www.w3.org/2000/svg">
<g clip-path="url(#clip0_6_427)">
<path d="M368.239 77.692C363.135 93.7931 348.233 105.064 332.687 114.638C330.516 115.976 328.345 117.282 326.173 118.558C326.158 118.563 326.143 118.576 326.128 118.582C326.024 118.643 325.919 118.704 325.822 118.766C325.374 119.028 324.925 119.291 324.481 119.551L324.725 119.651C324.725 119.651 324.965 119.767 324.702 119.669C324.624 119.64 324.542 119.613 324.464 119.583C315.434 116.271 306.242 112.715 299.321 106.51C292.142 100.067 287.946 89.9609 291.834 81.4964C292.345 80.3876 292.99 79.3342 293.758 78.3556C294.074 77.9452 294.413 77.5525 294.767 77.1671C296.911 74.7871 299.714 72.9695 302.887 71.9011C306.06 70.8327 309.489 70.5521 312.82 71.0881C316.152 71.6241 319.267 72.9575 321.844 74.951C324.421 76.9445 326.368 79.5263 327.485 82.4309C328.627 72.7611 319.858 64.6613 311.42 58.6848C302.978 52.7113 293.386 46.2061 291.754 36.5901C290.842 31.2398 292.888 26.0549 296.615 21.8927C296.731 21.7662 296.846 21.6399 296.965 21.5169C301.502 16.6691 307.883 13.5561 314.833 12.7998C327.778 11.5764 340.352 17.8071 349.756 25.9914C364.891 39.1593 374.041 59.3853 368.239 77.692Z" fill="#F2F2F2"/>
<path d="M343.908 56.6321C346.393 60.1469 348.3 63.9724 349.57 67.9878C350.644 71.5767 351.122 75.2915 350.989 79.0089C350.756 86.65 348.17 94.1168 344.102 100.767C340.955 105.81 337.12 110.471 332.687 114.638C330.517 115.976 328.345 117.282 326.173 118.558C326.159 118.563 326.143 118.576 326.129 118.582C326.024 118.643 325.919 118.704 325.822 118.766C325.374 119.028 324.925 119.291 324.481 119.551C324.481 119.551 324.965 119.767 324.702 119.669C324.624 119.64 324.543 119.613 324.465 119.583C325.274 113.549 324.481 107.426 322.152 101.727C319.823 96.0288 316.027 90.9209 311.08 86.8317C306.121 82.8047 300.186 79.9004 293.758 78.3556C294.074 77.9453 294.413 77.5526 294.767 77.1671C297.249 77.8002 299.665 78.6315 301.987 79.6516C310.285 83.2753 317.08 89.2323 321.365 96.641C325.211 103.368 326.866 110.954 326.136 118.507C326.507 118.201 326.879 117.888 327.239 117.579C334.102 111.761 340.197 105.083 344.322 97.3756C347.901 90.8488 349.66 83.6218 349.444 76.3312C349.107 68.3817 345.624 61.0183 340.581 54.6081C335.179 47.7477 328.406 41.6781 321.174 36.4199C313.766 31.0245 305.66 26.4737 297.036 22.8689C296.842 22.7864 296.69 22.639 296.611 22.4573C296.533 22.2756 296.534 22.0735 296.615 21.8927C296.673 21.7305 296.798 21.5955 296.965 21.517C297.05 21.4834 297.143 21.4679 297.236 21.4715C297.33 21.4751 297.421 21.4977 297.503 21.5378C298.567 21.9835 299.625 22.4353 300.674 22.9066C309.409 26.8331 317.575 31.7312 324.983 37.4884C332.138 43.0358 338.875 49.3737 343.908 56.6321Z" fill="white"/>
<path d="M284.944 169.884C295.399 169.884 303.875 162.177 303.875 152.67C303.875 143.163 295.399 135.455 284.944 135.455C274.489 135.455 266.014 143.163 266.014 152.67C266.014 162.177 274.489 169.884 284.944 169.884Z" fill="#2F2E41"/>
<path d="M270.168 143.388C273.227 140.606 273.847 136.66 271.553 134.574C269.258 132.487 264.918 133.051 261.859 135.833C258.8 138.615 258.18 142.561 260.475 144.647C262.769 146.734 267.109 146.17 270.168 143.388Z" fill="#2F2E41"/>
<path d="M304.675 137.921C305.95 135.208 303.758 131.756 299.779 130.21C295.801 128.665 291.542 129.612 290.268 132.325C288.993 135.038 291.185 138.491 295.164 140.036C299.142 141.582 303.401 140.635 304.675 137.921Z" fill="#2F2E41"/>
<path d="M325.035 226.583C321.782 228.638 318.345 230.44 314.76 231.97L314.23 231.118L309.156 223.02L308.712 222.31L306.116 218.168L306.111 218.163L297.917 205.071L293.705 198.35L306.212 190.374L311.078 199.728L313.716 204.809L324.575 225.692L325.035 226.583Z" fill="#A0616A"/>
<path d="M313.86 194.997L312.292 192.763L305.356 182.869C304.409 180.947 302.663 179.444 300.5 178.69C298.337 177.937 295.933 177.993 293.816 178.848C291.699 179.702 290.04 181.285 289.204 183.249C288.367 185.213 288.421 187.399 289.354 189.327L293.641 203.217C293.762 203.61 293.973 203.975 294.262 204.287C294.551 204.6 294.91 204.852 295.315 205.028C295.72 205.204 296.162 205.298 296.611 205.306C297.06 205.313 297.505 205.233 297.917 205.071C297.933 205.067 297.944 205.062 297.96 205.057L311.077 199.728L312.49 199.153C312.903 198.984 313.27 198.737 313.569 198.427C313.867 198.118 314.088 197.754 314.218 197.36C314.348 196.965 314.383 196.551 314.322 196.143C314.26 195.735 314.102 195.345 313.86 194.997Z" fill="#9747FF"/>
<path d="M276.172 195.309L272.522 202.803L271.729 204.434L258.216 232.194L257.782 233.085C254.123 231.697 250.599 230.03 247.25 228.101L247.614 227.167L258.644 198.866L261.352 191.917L267.282 193.274L276.172 195.309Z" fill="#A0616A"/>
<path d="M299.642 163.787C303.898 156.707 301.037 147.83 293.251 143.96C285.465 140.09 275.704 142.692 271.448 149.772C267.191 156.852 270.053 165.728 277.839 169.599C285.624 173.469 295.386 170.867 299.642 163.787Z" fill="#A0616A"/>
<path d="M313.55 198.448C313.318 196.523 312.897 194.62 312.292 192.763C310.47 187.172 306.987 182.147 302.225 178.241C300.476 176.813 298.207 176.024 295.856 176.026H273.223C271.596 176.023 269.996 176.398 268.574 177.117C267.152 177.835 265.957 178.873 265.102 180.132C264.247 181.39 263.76 182.827 263.69 184.304C263.619 185.782 263.966 187.252 264.697 188.573L267.282 193.274L272.522 202.803L273.779 205.086L279.383 215.282L279.827 216.09L308.273 223.205L308.396 222.957C308.503 222.738 308.61 222.524 308.712 222.309C308.867 221.983 309.022 221.667 309.167 221.346C312.035 215.16 313.389 209.656 313.716 204.809C313.862 202.688 313.807 200.56 313.55 198.448Z" fill="#9747FF"/>
<path d="M277.328 178.693C275.234 177.801 272.837 177.7 270.662 178.412C268.486 179.123 266.709 180.589 265.719 182.49L263.702 185.259L256.958 194.515C256.708 194.859 256.542 195.247 256.472 195.654C256.401 196.061 256.428 196.477 256.551 196.874C256.673 197.271 256.888 197.639 257.181 197.953C257.474 198.268 257.838 198.521 258.248 198.696L258.644 198.866L271.73 204.434L272.661 204.828C273.012 204.978 273.392 205.066 273.779 205.086C274.296 205.123 274.816 205.041 275.289 204.847C275.701 204.679 276.07 204.433 276.368 204.123C276.666 203.814 276.888 203.45 277.017 203.057L281.545 189.279C282.527 187.366 282.635 185.177 281.844 183.193C281.054 181.208 279.429 179.59 277.328 178.693Z" fill="#9747FF"/>
<path d="M309.166 221.346C309.071 221.043 308.917 220.758 308.712 220.504C307.98 219.612 307.105 218.824 306.116 218.168L306.111 218.163C302.669 215.793 295.819 213.024 282.605 212.951H282.583C281.978 212.95 281.385 213.108 280.875 213.406C280.365 213.704 279.961 214.129 279.709 214.63L279.383 215.282L277.279 219.487C277.101 219.849 276.818 220.16 276.461 220.387C274.561 221.609 268.513 226.037 265.388 234.496C265.275 234.798 265.168 235.104 265.066 235.421C278.43 238.971 292.649 238.854 305.939 235.085L306.234 233.98L309.156 223.02L309.204 222.84C309.337 222.348 309.324 221.832 309.166 221.346Z" fill="#2F2E41"/>
<path d="M268.663 147.59C272.334 149.891 276.692 151.115 281.151 151.099C279.56 152.102 277.75 152.78 275.844 153.085C281.772 154.241 287.899 154.273 293.841 153.177C295.162 152.984 296.437 152.586 297.609 152C298.193 151.703 298.702 151.298 299.103 150.811C299.503 150.324 299.787 149.765 299.935 149.172C300.33 147.12 298.572 145.257 296.745 144.001C293.948 142.107 290.724 140.802 287.304 140.181C283.885 139.56 280.357 139.637 276.974 140.408C274.766 140.927 272.553 141.804 271.119 143.417C269.684 145.03 269.259 147.517 270.626 149.177L268.663 147.59Z" fill="#2F2E41"/>
<path d="M290.826 14.8336H0.581055V15.8915H290.826V14.8336Z" fill="#3F3D56"/>
<path d="M10.4694 11.11C12.3968 11.11 13.9593 9.68918 13.9593 7.93648C13.9593 6.18378 12.3968 4.76294 10.4694 4.76294C8.54198 4.76294 6.97949 6.18378 6.97949 7.93648C6.97949 9.68918 8.54198 11.11 10.4694 11.11Z" fill="#3F3D56"/>
<path d="M20.5031 11.11C22.4305 11.11 23.993 9.68918 23.993 7.93648C23.993 6.18378 22.4305 4.76294 20.5031 4.76294C18.5757 4.76294 17.0132 6.18378 17.0132 7.93648C17.0132 9.68918 18.5757 11.11 20.5031 11.11Z" fill="#3F3D56"/>
<path d="M30.5363 11.11C32.4637 11.11 34.0262 9.68918 34.0262 7.93648C34.0262 6.18378 32.4637 4.76294 30.5363 4.76294C28.6089 4.76294 27.0464 6.18378 27.0464 7.93648C27.0464 9.68918 28.6089 11.11 30.5363 11.11Z" fill="#3F3D56"/>
<path d="M227.967 76.2244H63.2348C62.7445 76.2244 62.2591 76.1366 61.8061 75.966C61.3532 75.7954 60.9416 75.5453 60.5949 75.2301C60.2483 74.9149 59.9733 74.5406 59.7857 74.1287C59.598 73.7168 59.5015 73.2754 59.5015 72.8296C59.5015 72.3837 59.598 71.9423 59.7857 71.5304C59.9733 71.1185 60.2483 70.7443 60.5949 70.429C60.9416 70.1138 61.3532 69.8637 61.8061 69.6931C62.2591 69.5225 62.7445 69.4347 63.2348 69.4347H227.967C228.458 69.4347 228.943 69.5225 229.396 69.6931C229.849 69.8637 230.261 70.1138 230.607 70.429C230.954 70.7443 231.229 71.1185 231.417 71.5304C231.604 71.9423 231.701 72.3837 231.701 72.8296C231.701 73.2754 231.604 73.7168 231.417 74.1287C231.229 74.5406 230.954 74.9149 230.607 75.2301C230.261 75.5453 229.849 75.7954 229.396 75.966C228.943 76.1366 228.458 76.2244 227.967 76.2244Z" fill="#CCCCCC"/>
<path d="M227.967 112.719H63.2348C62.7445 112.719 62.2591 112.631 61.8061 112.461C61.3532 112.29 60.9416 112.04 60.5949 111.725C60.2483 111.41 59.9733 111.035 59.7857 110.624C59.598 110.212 59.5015 109.77 59.5015 109.324C59.5015 108.879 59.598 108.437 59.7857 108.025C59.9733 107.613 60.2483 107.239 60.5949 106.924C60.9416 106.609 61.3532 106.359 61.8061 106.188C62.2591 106.017 62.7445 105.93 63.2348 105.93H227.967C228.458 105.93 228.943 106.017 229.396 106.188C229.849 106.359 230.261 106.609 230.607 106.924C230.954 107.239 231.229 107.613 231.417 108.025C231.604 108.437 231.701 108.879 231.701 109.324C231.701 109.77 231.604 110.212 231.417 110.624C231.229 111.035 230.954 111.41 230.607 111.725C230.261 112.04 229.849 112.29 229.396 112.461C228.943 112.631 228.458 112.719 227.967 112.719Z" fill="#E6E6E6"/>
<path d="M227.967 126.723H63.2348C62.2446 126.723 61.2951 126.366 60.5949 125.729C59.8948 125.092 59.5015 124.229 59.5015 123.328C59.5015 122.428 59.8948 121.564 60.5949 120.928C61.2951 120.291 62.2446 119.933 63.2348 119.933H227.967C228.958 119.933 229.907 120.291 230.607 120.928C231.307 121.564 231.701 122.428 231.701 123.328C231.701 124.229 231.307 125.092 230.607 125.729C229.907 126.366 228.958 126.723 227.967 126.723Z" fill="#E6E6E6"/>
<path d="M201.134 61.7962H90.0678C89.0777 61.7962 88.1281 61.4385 87.4279 60.8019C86.7278 60.1652 86.3345 59.3017 86.3345 58.4013C86.3345 57.501 86.7278 56.6375 87.4279 56.0008C88.1281 55.3641 89.0777 55.0065 90.0678 55.0065H201.134C202.124 55.0065 203.074 55.3641 203.774 56.0008C204.474 56.6375 204.867 57.501 204.867 58.4013C204.867 59.3017 204.474 60.1652 203.774 60.8019C203.074 61.4385 202.124 61.7962 201.134 61.7962Z" fill="#CCCCCC"/>
<path d="M121.31 98.7155H63.4438C62.9532 98.7161 62.4673 98.6287 62.0138 98.4583C61.5603 98.2879 61.1483 98.0379 60.8011 97.7226C60.454 97.4073 60.1786 97.0329 59.9907 96.6208C59.8028 96.2086 59.7061 95.7668 59.7061 95.3207C59.7061 94.8745 59.8028 94.4327 59.9907 94.0206C60.1786 93.6084 60.454 93.234 60.8011 92.9187C61.1483 92.6034 61.5603 92.3534 62.0138 92.183C62.4673 92.0127 62.9532 91.9252 63.4438 91.9258H121.31C122.3 91.9258 123.25 92.2835 123.95 92.9201C124.65 93.5568 125.044 94.4203 125.044 95.3207C125.044 96.221 124.65 97.0845 123.95 97.7212C123.25 98.3579 122.3 98.7155 121.31 98.7155Z" fill="#E6E6E6"/>
<path d="M228.176 98.7155H170.31C169.819 98.7161 169.333 98.6287 168.88 98.4583C168.427 98.2879 168.014 98.0379 167.667 97.7226C167.32 97.4073 167.045 97.0329 166.857 96.6208C166.669 96.2086 166.572 95.7668 166.572 95.3207C166.572 94.8745 166.669 94.4327 166.857 94.0206C167.045 93.6084 167.32 93.234 167.667 92.9187C168.014 92.6034 168.427 92.3534 168.88 92.183C169.333 92.0127 169.819 91.9252 170.31 91.9258H228.176C228.667 91.9252 229.153 92.0127 229.607 92.183C230.06 92.3534 230.472 92.6034 230.819 92.9187C231.166 93.234 231.442 93.6084 231.63 94.0206C231.818 94.4327 231.914 94.8745 231.914 95.3207C231.914 95.7668 231.818 96.2086 231.63 96.6208C231.442 97.0329 231.166 97.4073 230.819 97.7226C230.472 98.0379 230.06 98.2879 229.607 98.4583C229.153 98.6287 228.667 98.7161 228.176 98.7155Z" fill="#E6E6E6"/>
<path d="M287.336 0H4.06754C2.98835 0.00149296 1.9539 0.39233 1.19129 1.08671C0.428679 1.78109 0.000236944 2.72226 0 3.70362V178.251C0.00135958 179.231 0.430336 180.171 1.19286 180.865C1.95537 181.558 2.98918 181.948 4.06754 181.949H215.893C215.839 181.599 215.796 181.244 215.753 180.893H4.06754C3.29699 180.893 2.55821 180.614 2.01334 180.119C1.46847 179.623 1.16204 178.951 1.16133 178.251V3.70362C1.16183 3.00242 1.46802 2.33 2.01278 1.83373C2.55754 1.33746 3.29644 1.05781 4.06754 1.05609H287.336C288.108 1.05682 288.848 1.33599 289.394 1.83234C289.939 2.32869 290.246 3.00168 290.247 3.70362V110.68C290.633 110.705 291.023 110.734 291.409 110.768V3.70362C291.408 2.72148 290.979 1.77971 290.215 1.08525C289.452 0.390792 288.416 0.000451352 287.336 0Z" fill="#3F3D56"/>
<path d="M215.893 181.949C215.839 181.599 215.796 181.244 215.753 180.893C215.743 180.84 215.737 180.791 215.732 180.737C215.577 179.458 215.464 178.165 215.395 176.859C215.101 177.983 214.835 179.112 214.598 180.246C214.614 180.411 214.63 180.572 214.651 180.737C214.656 180.791 214.662 180.84 214.672 180.893C214.715 181.244 214.758 181.599 214.812 181.949C214.961 183.035 215.144 184.105 215.358 185.171C215.363 185.127 215.368 185.088 215.373 185.045C215.523 184.018 215.695 182.996 215.898 181.974C215.894 181.966 215.892 181.958 215.893 181.949ZM291.409 109.79C291.023 109.756 290.633 109.726 290.247 109.702C290.189 109.697 290.135 109.697 290.076 109.692C288.363 109.575 286.63 109.517 284.885 109.517C275.006 109.52 265.239 111.406 256.211 115.053C247.184 118.701 239.098 124.029 232.475 130.693C225.852 137.358 220.839 145.211 217.76 153.746C214.681 162.282 213.603 171.309 214.598 180.246C214.614 180.411 214.63 180.572 214.651 180.737C214.656 180.791 214.662 180.84 214.672 180.893C214.715 181.244 214.758 181.599 214.812 181.949C214.961 183.035 215.144 184.105 215.358 185.171C217.484 195.738 222.478 205.654 229.886 214.021C237.295 222.388 246.884 228.941 257.782 233.085C258.896 233.503 260.019 233.902 261.16 234.267C261.909 234.515 262.658 234.744 263.418 234.963C263.964 235.124 264.515 235.275 265.066 235.421C265.848 235.63 266.64 235.829 267.437 236.014C277.22 238.296 287.428 238.635 297.367 237.008C307.306 235.38 316.743 231.824 325.035 226.583H325.04C334.444 220.678 342.131 212.787 347.442 203.586C352.753 194.385 355.528 184.15 355.53 173.759C355.53 140.334 327.315 112.792 291.409 109.79ZM324.575 225.692C321.305 227.768 317.843 229.584 314.229 231.118C311.633 232.223 308.962 233.179 306.234 233.98C293.921 237.583 280.75 237.999 268.192 235.182C267.25 234.973 266.315 234.744 265.388 234.496C264.472 234.253 263.566 233.995 262.669 233.722C261.935 233.493 261.202 233.26 260.474 233.012C259.714 232.749 258.965 232.476 258.216 232.194C246.946 227.923 237.106 221.037 229.68 212.224C222.254 203.411 217.501 192.98 215.898 181.974C215.894 181.966 215.892 181.958 215.893 181.949C215.839 181.599 215.796 181.244 215.753 180.893C215.743 180.84 215.737 180.791 215.732 180.737C215.577 179.458 215.464 178.165 215.395 176.859C215.336 175.832 215.308 174.798 215.309 173.759C215.329 156.984 222.666 140.903 235.71 129.041C248.753 117.18 266.438 110.509 284.885 110.49C286.63 110.49 288.363 110.549 290.076 110.666C290.135 110.671 290.189 110.675 290.247 110.68C290.633 110.705 291.023 110.734 291.409 110.768C326.726 113.766 354.46 140.869 354.46 173.759C354.459 183.966 351.74 194.021 346.535 203.065C341.331 212.108 333.796 219.872 324.575 225.692ZM260.474 233.012C259.714 232.749 258.965 232.476 258.216 232.194C246.946 227.923 237.106 221.037 229.68 212.224C222.254 203.411 217.501 192.98 215.898 181.974C215.695 182.996 215.523 184.018 215.373 185.045C215.368 185.088 215.363 185.127 215.358 185.171C217.484 195.738 222.478 205.654 229.886 214.021C237.295 222.388 246.884 228.941 257.782 233.085C258.896 233.503 260.019 233.902 261.16 234.267C260.924 233.853 260.694 233.435 260.474 233.012ZM290.076 109.692C288.363 109.575 286.63 109.517 284.885 109.517C275.006 109.52 265.239 111.406 256.211 115.053C247.184 118.701 239.098 124.029 232.475 130.693C225.852 137.358 220.839 145.211 217.76 153.746C214.681 162.282 213.603 171.309 214.598 180.246C214.614 180.411 214.63 180.572 214.651 180.737C214.656 180.791 214.662 180.84 214.672 180.893H215.753C215.743 180.84 215.737 180.791 215.732 180.737C215.577 179.458 215.464 178.165 215.395 176.859C215.336 175.832 215.308 174.798 215.309 173.759C215.329 156.984 222.666 140.903 235.71 129.041C248.753 117.18 266.438 110.509 284.885 110.49C286.63 110.49 288.363 110.549 290.076 110.666C290.135 110.671 290.189 110.675 290.247 110.68L290.247 109.702C290.189 109.697 290.135 109.697 290.076 109.692Z" fill="#3F3D56"/>
<path d="M342.308 125.96C364.007 126.297 364.004 155.648 342.307 155.982C320.609 155.645 320.613 126.294 342.308 125.96Z" fill="#9747FF"/>
<path d="M342.309 149.145C342.001 149.144 341.706 149.033 341.489 148.835C341.271 148.638 341.149 148.37 341.148 148.09V142.496C341.148 142.372 341.094 142.252 340.997 142.164C340.9 142.076 340.769 142.026 340.632 142.026H334.481C334.173 142.026 333.878 141.915 333.66 141.717C333.443 141.519 333.32 141.251 333.32 140.971C333.32 140.691 333.443 140.423 333.66 140.225C333.878 140.027 334.173 139.916 334.481 139.916H340.632C340.769 139.916 340.9 139.866 340.997 139.778C341.094 139.69 341.148 139.571 341.148 139.446V133.852C341.148 133.573 341.271 133.304 341.488 133.107C341.706 132.909 342.001 132.798 342.309 132.798C342.616 132.798 342.911 132.909 343.129 133.107C343.346 133.304 343.469 133.573 343.469 133.852V139.446C343.469 139.571 343.523 139.69 343.62 139.778C343.717 139.866 343.848 139.916 343.986 139.916H350.136C350.444 139.916 350.739 140.027 350.957 140.225C351.175 140.423 351.297 140.691 351.297 140.971C351.297 141.251 351.175 141.519 350.957 141.717C350.739 141.915 350.444 142.026 350.136 142.026H343.986C343.848 142.026 343.717 142.076 343.62 142.164C343.523 142.252 343.469 142.372 343.469 142.496V148.09C343.468 148.369 343.346 148.638 343.128 148.835C342.911 149.033 342.616 149.144 342.309 149.145Z" fill="white"/>
</g>
<defs>
<clipPath id="clip0_6_427">
<rect width="370" height="238" fill="white"/>
</clipPath>
</defs>
</svg>
