<svg width="436" height="292" viewBox="0 0 436 292" fill="none" xmlns="http://www.w3.org/2000/svg">
<g clip-path="url(#clip0_6_753)">
<path d="M105.603 263.203L106.088 251.442C111.142 248.527 116.779 246.988 122.509 246.957C114.622 253.914 115.608 267.325 110.261 276.681C108.572 279.585 106.3 282.042 103.612 283.87C100.924 285.697 97.8888 286.849 94.7321 287.239L88.1322 291.599C87.2266 286.152 87.4262 280.557 88.7174 275.201C90.0086 269.845 92.3606 264.855 95.6114 260.574C97.4572 258.192 99.5736 256.07 101.911 254.259C103.491 258.756 105.603 263.203 105.603 263.203Z" fill="#F2F2F2"/>
<path d="M387.218 19.163H79.977C79.848 19.16 79.7253 19.1025 79.6351 19.003C79.5449 18.9036 79.4944 18.7699 79.4944 18.6307C79.4944 18.4915 79.5449 18.3579 79.6351 18.2584C79.7253 18.1589 79.848 18.1015 79.977 18.0984H387.218C387.347 18.1015 387.47 18.1589 387.56 18.2584C387.65 18.3579 387.701 18.4915 387.701 18.6307C387.701 18.7699 387.65 18.9036 387.56 19.003C387.47 19.1025 387.347 19.16 387.218 19.163Z" fill="#CACACA"/>
<path d="M90.8391 11.7107C93.7709 11.7107 96.1476 9.08919 96.1476 5.85536C96.1476 2.62154 93.7709 0 90.8391 0C87.9072 0 85.5305 2.62154 85.5305 5.85536C85.5305 9.08919 87.9072 11.7107 90.8391 11.7107Z" fill="#3F3D56"/>
<path d="M109.178 11.7107C112.11 11.7107 114.486 9.08919 114.486 5.85536C114.486 2.62154 112.11 0 109.178 0C106.246 0 103.869 2.62154 103.869 5.85536C103.869 9.08919 106.246 11.7107 109.178 11.7107Z" fill="#3F3D56"/>
<path d="M127.516 11.7107C130.448 11.7107 132.825 9.08919 132.825 5.85536C132.825 2.62154 130.448 0 127.516 0C124.584 0 122.208 2.62154 122.208 5.85536C122.208 9.08919 124.584 11.7107 127.516 11.7107Z" fill="#3F3D56"/>
<path d="M376.229 1.45131H363.202C362.944 1.45684 362.698 1.5714 362.517 1.77038C362.336 1.96936 362.235 2.2369 362.235 2.51556C362.235 2.79421 362.336 3.06175 362.517 3.26073C362.698 3.45972 362.944 3.57427 363.202 3.5798H376.229C376.487 3.57427 376.733 3.45972 376.913 3.26073C377.094 3.06175 377.196 2.79421 377.196 2.51556C377.196 2.2369 377.094 1.96936 376.913 1.77038C376.733 1.5714 376.487 1.45684 376.229 1.45131Z" fill="#3F3D56"/>
<path d="M376.229 5.44617H363.202C362.944 5.4517 362.698 5.56626 362.517 5.76524C362.336 5.96422 362.235 6.23176 362.235 6.51041C362.235 6.78907 362.336 7.05661 362.517 7.25559C362.698 7.45457 362.944 7.56913 363.202 7.57466H376.229C376.487 7.56913 376.733 7.45457 376.913 7.25559C377.094 7.05661 377.196 6.78907 377.196 6.51041C377.196 6.23176 377.094 5.96422 376.913 5.76524C376.733 5.56626 376.487 5.4517 376.229 5.44617Z" fill="#3F3D56"/>
<path d="M376.229 9.43579H363.202C362.944 9.44132 362.698 9.55587 362.517 9.75485C362.336 9.95384 362.235 10.2214 362.235 10.5C362.235 10.7787 362.336 11.0462 362.517 11.2452C362.698 11.4442 362.944 11.5588 363.202 11.5643H376.229C376.487 11.5588 376.733 11.4442 376.913 11.2452C377.094 11.0462 377.196 10.7787 377.196 10.5C377.196 10.2214 377.094 9.95384 376.913 9.75485C376.733 9.55587 376.487 9.44132 376.229 9.43579Z" fill="#3F3D56"/>
<path d="M319.092 60.8884H108.21C107.171 60.8884 106.174 61.3335 105.439 62.1257C104.704 62.918 104.29 63.9928 104.289 65.1139V172.519C104.29 173.641 104.703 174.716 105.438 175.509C106.173 176.303 107.17 176.749 108.21 176.75H319.092C320.131 176.748 321.126 176.301 321.86 175.508C322.594 174.715 323.007 173.64 323.008 172.519V65.1139C323.007 63.9936 322.594 62.9195 321.86 62.1273C321.126 61.3351 320.13 60.8895 319.092 60.8884Z" fill="#3F3D56"/>
<path d="M263.389 112.633C262.351 112.634 261.355 113.08 260.621 113.872C259.887 114.664 259.474 115.738 259.473 116.858V147.197C259.474 148.318 259.887 149.393 260.621 150.186C261.355 150.979 262.35 151.426 263.389 151.428H323.008V112.633H263.389Z" fill="#571162"/>
<path opacity="0.5" d="M423.255 151.426H263.391C262.352 151.425 261.356 150.979 260.621 150.186C259.886 149.393 259.473 148.318 259.472 147.197V116.859C259.473 115.738 259.886 114.663 260.621 113.871C261.356 113.078 262.352 112.632 263.391 112.631H423.255C424.294 112.632 425.29 113.078 426.025 113.871C426.76 114.663 427.173 115.738 427.174 116.859V147.197C427.173 148.318 426.76 149.393 426.025 150.186C425.29 150.979 424.294 151.425 423.255 151.426Z" fill="#571162"/>
<path d="M285.01 140.83C288.523 140.83 291.37 137.758 291.37 133.968C291.37 130.178 288.523 127.106 285.01 127.106C281.498 127.106 278.65 130.178 278.65 133.968C278.65 137.758 281.498 140.83 285.01 140.83Z" fill="white"/>
<path d="M418.302 131.974H303.381C302.879 131.974 302.397 131.759 302.042 131.375C301.687 130.992 301.487 130.472 301.487 129.93C301.487 129.388 301.687 128.869 302.042 128.486C302.397 128.102 302.879 127.887 303.381 127.887H418.302C418.804 127.887 419.286 128.102 419.641 128.486C419.996 128.869 420.195 129.388 420.195 129.93C420.195 130.472 419.996 130.992 419.641 131.375C419.286 131.759 418.804 131.974 418.302 131.974Z" fill="white"/>
<path d="M374.654 140.049H303.381C302.879 140.049 302.397 139.833 302.042 139.45C301.687 139.067 301.487 138.547 301.487 138.005C301.487 137.463 301.687 136.943 302.042 136.56C302.397 136.177 302.879 135.961 303.381 135.961H374.654C375.156 135.961 375.638 136.177 375.993 136.56C376.348 136.943 376.548 137.463 376.548 138.005C376.548 138.547 376.348 139.067 375.993 139.45C375.638 139.833 375.156 140.049 374.654 140.049Z" fill="white"/>
<path d="M73.5669 286.003L79.0711 286.003L81.6895 263.096H73.5659L73.5669 286.003Z" fill="#FFB6B6"/>
<path d="M72.1631 284.064L73.7123 284.064L79.7609 281.41L83.0027 284.064C84.8348 284.064 86.5922 284.849 87.8876 286.247C89.1831 287.645 89.9109 289.54 89.911 291.517V291.759L72.1634 291.76L72.1631 284.064Z" fill="#2F2E41"/>
<path d="M23.8335 278.282L28.76 280.931L40.5739 261.69L33.3035 257.78L23.8335 278.282Z" fill="#FFB6B6"/>
<path d="M23.3787 275.871L24.7653 276.617L31.276 277.153L33.0803 281.088C34.7198 281.97 35.968 283.518 36.5496 285.393C37.1311 287.267 36.9987 289.314 36.1816 291.083L36.0814 291.3L20.1973 282.759L23.3787 275.871Z" fill="#2F2E41"/>
<path d="M76.0058 181.969L41.0089 182.954L41.6175 201.342C41.6175 201.342 41.0089 206.267 42.2262 207.58C43.4435 208.894 44.0521 208.894 43.4435 211.192C42.8348 213.491 41.2613 235.452 41.2613 235.452C41.2613 235.452 26.8976 262.855 27.5063 263.511C28.1149 264.168 28.7235 263.511 28.1149 265.153C27.5063 266.795 26.8976 266.138 27.5063 266.795C28.0454 267.422 28.5533 268.08 29.0279 268.765H38.9476C38.9476 268.765 39.5023 265.481 39.5023 265.153C39.5023 264.825 40.111 262.855 40.111 262.526C40.111 262.198 57.4422 242.385 57.4422 242.385L61.0941 209.55L69.9193 241.729C69.9193 241.729 69.9194 269.967 70.528 270.624C71.1366 271.28 71.1366 270.952 70.8323 272.265C70.528 273.579 69.3107 273.25 70.2237 274.236C71.1366 275.221 71.441 273.579 71.1366 275.221L70.8323 276.862L82.5241 277.003C82.5241 277.003 83.7414 274.236 83.1327 273.25C82.5241 272.265 82.5606 272.534 83.3031 270.922C84.0457 269.31 84.35 268.982 84.0457 268.654C83.7414 268.325 83.7414 266.579 83.7414 266.579C83.7414 266.579 79.3533 201.998 79.3533 201.013C79.3304 200.506 79.4169 200.001 79.6061 199.536V198.199L78.4403 193.461L76.0058 181.969Z" fill="#2F2E41"/>
<path d="M422.571 124.956C419.915 124.956 417.319 124.106 415.11 122.514C412.902 120.922 411.18 118.659 410.164 116.012C409.148 113.364 408.882 110.451 409.4 107.64C409.918 104.829 411.197 102.248 413.075 100.221C414.953 98.1947 417.346 96.8148 419.951 96.2557C422.556 95.6966 425.256 95.9835 427.71 97.0802C430.164 98.1769 432.261 100.034 433.737 102.417C435.212 104.8 436 107.601 436 110.467C436 114.31 434.585 117.995 432.067 120.712C429.548 123.43 426.133 124.956 422.571 124.956Z" fill="#571162"/>
<path d="M427.87 109.038H423.896V104.75C423.896 104.371 423.756 104.007 423.508 103.739C423.259 103.471 422.922 103.32 422.571 103.32C422.22 103.32 421.883 103.471 421.634 103.739C421.386 104.007 421.246 104.371 421.246 104.75V109.038H417.272C417.098 109.037 416.925 109.074 416.764 109.146C416.603 109.217 416.457 109.322 416.334 109.455C416.21 109.588 416.113 109.746 416.046 109.919C415.979 110.093 415.945 110.279 415.945 110.467C415.945 110.655 415.979 110.841 416.046 111.014C416.113 111.188 416.21 111.346 416.334 111.478C416.457 111.611 416.603 111.716 416.764 111.788C416.925 111.86 417.098 111.896 417.272 111.896H421.246V116.184C421.246 116.563 421.386 116.927 421.634 117.195C421.883 117.463 422.22 117.613 422.571 117.613C422.922 117.613 423.259 117.463 423.508 117.195C423.756 116.927 423.896 116.563 423.896 116.184V111.896H427.87C428.221 111.896 428.558 111.746 428.806 111.477C429.055 111.209 429.194 110.846 429.194 110.467C429.194 110.088 429.055 109.724 428.806 109.456C428.558 109.188 428.221 109.038 427.87 109.038Z" fill="white"/>
<path d="M217.623 151.622H166.599C165.56 151.623 164.563 152.069 163.828 152.863C163.093 153.656 162.679 154.731 162.678 155.853V176.75H221.539V155.853C221.538 154.732 221.126 153.657 220.391 152.864C219.657 152.071 218.662 151.624 217.623 151.622Z" fill="#571162"/>
<path opacity="0.5" d="M217.621 210.339H166.598C165.558 210.338 164.562 209.892 163.827 209.099C163.093 208.306 162.679 207.232 162.678 206.11V155.851C162.679 154.73 163.093 153.655 163.828 152.862C164.562 152.069 165.558 151.623 166.598 151.622H217.621C218.66 151.623 219.657 152.069 220.391 152.862C221.126 153.655 221.539 154.73 221.541 155.851V206.11C221.539 207.232 221.126 208.306 220.391 209.099C219.657 209.892 218.66 210.338 217.621 210.339Z" fill="#571162"/>
<path d="M181.631 175.445C185.143 175.445 187.991 172.373 187.991 168.583C187.991 164.793 185.143 161.72 181.631 161.72C178.118 161.72 175.271 164.793 175.271 168.583C175.271 172.373 178.118 175.445 181.631 175.445Z" fill="white"/>
<path d="M207.054 185.875H177.165C176.662 185.875 176.181 185.66 175.825 185.277C175.47 184.893 175.271 184.374 175.271 183.832C175.271 183.29 175.47 182.77 175.825 182.387C176.181 182.003 176.662 181.788 177.165 181.788H207.054C207.556 181.788 208.038 182.003 208.393 182.387C208.748 182.77 208.948 183.29 208.948 183.832C208.948 184.374 208.748 184.893 208.393 185.277C208.038 185.66 207.556 185.875 207.054 185.875Z" fill="white"/>
<path d="M191.588 193.95H177.164C176.662 193.95 176.18 193.734 175.825 193.351C175.47 192.968 175.271 192.448 175.271 191.906C175.271 191.364 175.47 190.844 175.825 190.461C176.18 190.078 176.662 189.863 177.164 189.863H191.588C192.09 189.863 192.572 190.078 192.927 190.461C193.282 190.844 193.482 191.364 193.482 191.906C193.482 192.448 193.282 192.968 192.927 193.351C192.572 193.734 192.09 193.95 191.588 193.95Z" fill="white"/>
<path d="M165.534 225.09C162.878 225.09 160.282 224.24 158.073 222.648C155.865 221.056 154.144 218.793 153.127 216.145C152.111 213.498 151.845 210.584 152.363 207.774C152.881 204.963 154.16 202.381 156.038 200.355C157.916 198.328 160.309 196.948 162.914 196.389C165.519 195.83 168.219 196.117 170.673 197.214C173.127 198.311 175.224 200.168 176.7 202.551C178.176 204.933 178.963 207.735 178.963 210.601C178.963 214.443 177.548 218.129 175.03 220.846C172.511 223.563 169.096 225.09 165.534 225.09Z" fill="#571162"/>
<path d="M170.833 209.171H166.859V204.883C166.859 204.504 166.719 204.141 166.471 203.873C166.222 203.605 165.885 203.454 165.534 203.454C165.183 203.454 164.846 203.605 164.597 203.873C164.349 204.141 164.209 204.504 164.209 204.883V209.171H160.235C160.061 209.171 159.888 209.208 159.727 209.279C159.566 209.351 159.42 209.456 159.297 209.589C159.174 209.722 159.076 209.879 159.009 210.053C158.942 210.227 158.908 210.413 158.908 210.601C158.908 210.788 158.942 210.975 159.009 211.148C159.076 211.322 159.174 211.479 159.297 211.612C159.42 211.745 159.566 211.85 159.727 211.922C159.888 211.993 160.061 212.03 160.235 212.03H164.209V216.318C164.209 216.697 164.349 217.06 164.597 217.328C164.846 217.596 165.183 217.747 165.534 217.747C165.885 217.747 166.222 217.596 166.471 217.328C166.719 217.06 166.859 216.697 166.859 216.318V212.03H170.833C171.184 212.03 171.521 211.879 171.769 211.611C172.018 211.343 172.157 210.98 172.157 210.601C172.157 210.221 172.018 209.858 171.769 209.59C171.521 209.322 171.184 209.171 170.833 209.171Z" fill="white"/>
<path d="M159.318 119.671H108.294C107.255 119.67 106.259 119.224 105.524 118.431C104.789 117.638 104.376 116.563 104.375 115.442V65.1826C104.376 64.0614 104.789 62.9866 105.524 62.1938C106.259 61.401 107.255 60.9551 108.294 60.9539H159.318C160.357 60.9551 161.353 61.401 162.088 62.1938C162.823 62.9866 163.236 64.0614 163.237 65.1826V115.442C163.236 116.563 162.823 117.638 162.088 118.431C161.353 119.224 160.357 119.67 159.318 119.671Z" fill="#571162"/>
<path d="M123.327 88.9708C126.84 88.9708 129.687 85.8985 129.687 82.1086C129.687 78.3187 126.84 75.2463 123.327 75.2463C119.815 75.2463 116.967 78.3187 116.967 82.1086C116.967 85.8985 119.815 88.9708 123.327 88.9708Z" fill="#571162"/>
<path d="M148.75 97.304H118.861C118.359 97.304 117.877 97.0887 117.522 96.7055C117.167 96.3222 116.967 95.8025 116.967 95.2605C116.967 94.7186 117.167 94.1988 117.522 93.8156C117.877 93.4324 118.359 93.2171 118.861 93.2171H148.75C149.253 93.2171 149.734 93.4324 150.09 93.8156C150.445 94.1988 150.644 94.7186 150.644 95.2605C150.644 95.8025 150.445 96.3222 150.09 96.7055C149.734 97.0887 149.253 97.304 148.75 97.304Z" fill="#571162"/>
<path d="M133.284 105.379H118.861C118.359 105.379 117.877 105.163 117.522 104.78C117.167 104.397 116.967 103.877 116.967 103.335C116.967 102.793 117.167 102.273 117.522 101.89C117.877 101.507 118.359 101.292 118.861 101.292H133.284C133.787 101.292 134.268 101.507 134.624 101.89C134.979 102.273 135.178 102.793 135.178 103.335C135.178 103.877 134.979 104.397 134.624 104.78C134.268 105.163 133.787 105.379 133.284 105.379Z" fill="#571162"/>
<path opacity="0.5" d="M159.318 119.671H108.294C107.255 119.67 106.259 119.224 105.524 118.431C104.789 117.638 104.376 116.563 104.375 115.442V65.1826C104.376 64.0614 104.789 62.9866 105.524 62.1938C106.259 61.401 107.255 60.9551 108.294 60.9539H159.318C160.357 60.9551 161.353 61.401 162.088 62.1938C162.823 62.9866 163.236 64.0614 163.237 65.1826V115.442C163.236 116.563 162.823 117.638 162.088 118.431C161.353 119.224 160.357 119.67 159.318 119.671Z" fill="#571162"/>
<path d="M123.327 88.9708C126.84 88.9708 129.687 85.8985 129.687 82.1086C129.687 78.3187 126.84 75.2463 123.327 75.2463C119.815 75.2463 116.967 78.3187 116.967 82.1086C116.967 85.8985 119.815 88.9708 123.327 88.9708Z" fill="white"/>
<path d="M148.75 97.304H118.861C118.359 97.304 117.877 97.0887 117.522 96.7055C117.167 96.3222 116.967 95.8025 116.967 95.2605C116.967 94.7186 117.167 94.1988 117.522 93.8156C117.877 93.4324 118.359 93.2171 118.861 93.2171H148.75C149.253 93.2171 149.734 93.4324 150.09 93.8156C150.445 94.1988 150.644 94.7186 150.644 95.2605C150.644 95.8025 150.445 96.3222 150.09 96.7055C149.734 97.0887 149.253 97.304 148.75 97.304Z" fill="white"/>
<path d="M133.284 105.379H118.861C118.359 105.379 117.877 105.163 117.522 104.78C117.167 104.397 116.967 103.877 116.967 103.335C116.967 102.793 117.167 102.273 117.522 101.89C117.877 101.507 118.359 101.292 118.861 101.292H133.284C133.787 101.292 134.268 101.507 134.624 101.89C134.979 102.273 135.178 102.793 135.178 103.335C135.178 103.877 134.979 104.397 134.624 104.78C134.268 105.163 133.787 105.379 133.284 105.379Z" fill="white"/>
<path d="M109.347 71.7982C114.982 71.7982 119.551 66.8691 119.551 60.7888C119.551 54.7084 114.982 49.7793 109.347 49.7793C103.711 49.7793 99.1431 54.7084 99.1431 60.7888C99.1431 66.8691 103.711 71.7982 109.347 71.7982Z" fill="#9747FF"/>
<path d="M137.347 291.376C137.347 291.458 137.333 291.539 137.304 291.615C137.275 291.691 137.232 291.76 137.178 291.818C137.125 291.876 137.061 291.922 136.99 291.953C136.92 291.984 136.845 292 136.769 292H0.578213C0.424862 292 0.277789 291.934 0.169353 291.817C0.0609178 291.7 0 291.542 0 291.376C0 291.211 0.0609178 291.052 0.169353 290.935C0.277789 290.818 0.424862 290.752 0.578213 290.752H136.769C136.845 290.752 136.92 290.768 136.99 290.799C137.061 290.831 137.125 290.876 137.178 290.934C137.232 290.992 137.275 291.061 137.304 291.137C137.333 291.213 137.347 291.294 137.347 291.376Z" fill="#9747FF"/>
<path d="M107.166 89.9505C107.585 91.216 107.527 92.6086 107.004 93.8282C106.48 95.0477 105.533 95.9964 104.368 96.4698C104.11 96.5737 103.844 96.6528 103.573 96.7061L100.878 114.51L94.5566 108.212L98.0848 92.2709C97.9543 90.9276 98.3189 89.5829 99.0999 88.5273C99.8809 87.4718 101.016 86.7903 102.259 86.6302C103.304 86.5008 104.36 86.7591 105.251 87.3624C106.143 87.9658 106.818 88.8785 107.166 89.9505Z" fill="#FFB6B6"/>
<path d="M60.5132 130.291C60.5132 130.291 65.4195 123.297 83.2232 123.489L93.3287 119.527L95.6382 96.685L103.721 98.7615L102.567 127.003L85.2455 137.801L62.5354 142.784L60.5132 130.291Z" fill="#3F3D56"/>
<path d="M57.9063 115.72C63.7422 115.72 68.4732 110.616 68.4732 104.319C68.4732 98.0219 63.7422 92.9174 57.9063 92.9174C52.0703 92.9174 47.3394 98.0219 47.3394 104.319C47.3394 110.616 52.0703 115.72 57.9063 115.72Z" fill="#FFB6B6"/>
<path d="M40.0216 190.767C40.0029 190.767 39.9842 190.764 39.9662 190.758C39.7711 190.7 39.617 190.653 40.321 184.085L41.0809 178.893L40.3391 174.308L39.0913 172.962L41.0967 170.799L42.7795 165.641L39.8677 160.985L36.5269 141.946C35.9526 138.661 36.3989 135.263 37.7966 132.279C39.1944 129.295 41.4655 126.892 44.2578 125.443L48.1244 124.224L49.5312 121.441C49.9263 120.659 50.508 120.005 51.216 119.548C51.924 119.091 52.7325 118.846 53.5577 118.839L60.6384 118.782C61.3528 118.776 62.0587 118.949 62.7008 119.287C63.3429 119.625 63.9037 120.119 64.3393 120.73L66.8096 124.194L77.0534 127.949L75.355 167.437C75.6248 167.681 75.8448 167.982 76.0011 168.322C76.1573 168.662 76.2465 169.034 76.2629 169.413C76.2793 169.792 76.2226 170.171 76.0963 170.525C75.9701 170.879 75.7771 171.202 75.5295 171.471C75.423 171.587 75.3383 171.682 75.2862 171.744C75.1135 172.009 75.4375 173.985 75.8376 175.663L76.3507 178.233C76.1861 178.36 76.0476 178.522 75.9441 178.71C75.8405 178.897 75.7741 179.106 75.7491 179.323C75.7241 179.539 75.741 179.759 75.7988 179.969C75.8565 180.178 75.9538 180.372 76.0846 180.539L76.7388 181.372C76.8682 182.418 76.6079 183.476 76.0152 184.315C75.4224 185.154 74.5456 185.705 73.5769 185.847C64.215 187.222 40.0705 190.767 40.0216 190.767Z" fill="#3F3D56"/>
<path d="M55.2032 115.162C55.158 115.055 55.113 114.947 55.0681 114.839C55.0854 114.84 55.1025 114.842 55.1199 114.843L55.2032 115.162Z" fill="#2F2E41"/>
<path d="M47.0456 93.4359C47.5473 92.9251 48.1995 92.6209 48.888 92.5764C49.5713 92.6002 50.2642 93.2661 50.1227 93.9877C51.3777 91.59 53.3755 89.7459 55.7652 88.779C58.1549 87.8122 60.7838 87.7844 63.1906 88.7006C64.8889 89.3471 66.5544 90.6405 66.9445 92.5374C66.9825 93.0355 67.1201 93.5187 67.3479 93.9537C67.5454 94.1863 67.8016 94.3515 68.0849 94.429C68.3683 94.5065 68.6665 94.4928 68.9427 94.3897L68.9595 94.3844C69.0541 94.3495 69.1561 94.3461 69.2525 94.3745C69.3489 94.403 69.4352 94.4619 69.5002 94.5439C69.5651 94.6258 69.6058 94.7268 69.617 94.8339C69.6282 94.9411 69.6093 95.0494 69.5628 95.1448L69.0823 96.1118C69.688 96.2574 70.3174 96.243 70.9169 96.0697C71.0164 96.0415 71.1217 96.0472 71.2181 96.0861C71.3145 96.125 71.3974 96.1952 71.4555 96.2869C71.5135 96.3787 71.5438 96.4875 71.5422 96.5986C71.5406 96.7097 71.5072 96.8175 71.4466 96.9072C70.648 98.0861 69.6054 99.0475 68.4018 99.715C67.1982 100.383 65.8668 100.738 64.5136 100.752C62.5936 100.74 60.6539 100.026 58.7853 100.502C58.0624 100.686 57.387 101.043 56.8085 101.546C56.23 102.048 55.7632 102.684 55.4422 103.407C55.1213 104.13 54.9544 104.921 54.9537 105.722C54.9531 106.524 55.1188 107.315 55.4387 108.039C54.8646 107.361 53.755 107.522 53.1678 108.186C52.8974 108.541 52.6975 108.953 52.5805 109.395C52.4636 109.838 52.432 110.301 52.4878 110.757C52.6444 112.154 53.0287 113.509 53.6229 114.762C51.3525 114.686 49.1582 113.861 47.3365 112.397C45.5147 110.933 44.1533 108.901 43.436 106.576C42.7188 104.25 42.6804 101.743 43.3259 99.3934C43.9714 97.0435 45.2697 94.9641 47.0456 93.4359Z" fill="#2F2E41"/>
<path d="M44.1383 207.119C43.128 206.332 42.4446 205.149 42.2353 203.825C42.0261 202.5 42.3077 201.139 43.0196 200.036C43.1776 199.793 43.3551 199.565 43.5503 199.356L36.4197 183.039L44.9358 184.363L50.4015 199.654C51.2147 200.681 51.6206 202.012 51.5315 203.359C51.4424 204.707 50.8655 205.962 49.9254 206.854C49.1318 207.6 48.1266 208.032 47.0749 208.08C46.0233 208.129 44.9877 207.789 44.1383 207.119Z" fill="#FFB6B6"/>
<path d="M41.9788 198.209L30.6322 170.694L30.5186 148.963L34.0952 137.224C34.5805 135.632 35.3567 134.16 36.378 132.897C37.3993 131.634 38.645 130.604 40.0414 129.869C41.4378 129.134 42.9566 128.708 44.508 128.617C46.0595 128.526 47.6121 128.772 49.0741 129.339L49.1528 129.37L49.1859 129.453C49.318 129.786 52.3179 137.792 43.4197 154.262L41.6289 165.532L47.9126 191.364L41.9788 198.209Z" fill="#3F3D56"/>
</g>
<defs>
<clipPath id="clip0_6_753">
<rect width="436" height="292" fill="white"/>
</clipPath>
</defs>
</svg>
